<?xml version="1.0" encoding="utf-8"?>
<!-- Generator: Adobe Illustrator 21.0.2, SVG Export Plug-In . SVG Version: 6.00 Build 0)  -->
<svg version="1.1" id="Layer_1" xmlns="http://www.w3.org/2000/svg" xmlns:xlink="http://www.w3.org/1999/xlink" x="0px" y="0px"
	 viewBox="0 0 1536 1536" enable-background="new 0 0 1536 1536" xml:space="preserve">
<rect fill="none" width="1536" height="1536"/>
<path fill="#000000" d="M766.8,219.9l647,1120.6h-1294L766.8,219.9 M766.8,147.9c-25.7,0-49.5,13.7-62.4,36l-647,1120.6
	c-12.9,22.3-12.9,49.7,0,72s36.6,36,62.4,36h1294c25.7,0,49.5-13.7,62.4-36s12.9-49.7,0-72l-647-1120.6
	C816.2,161.6,792.5,147.9,766.8,147.9L766.8,147.9z"/>
<g id="Layer_82_copy">
	<g>
		<g>
			<path fill="#000000" d="M795,788c0,23.5,0,47.1,0,70.6c0,37.5,0,75,0,112.6c0,8.6,0,17.2,0,25.8c0,12.6,11,24.6,24,24s24-10.5,24-24
				c0-23.5,0-47.1,0-70.6c0-37.5,0-75,0-112.6c0-8.6,0-17.2,0-25.8c0-12.6-11-24.6-24-24S795,774.5,795,788L795,788z"/>
		</g>
	</g>
	<g>
		<g>
			<path fill="#000000" d="M953,940.5c0-44.6,0-89.2,0-133.8c0-6.2,0-12.4,0-18.6c0-12.6-11-24.6-24-24s-24,10.5-24,24c0,44.6,0,89.2,0,133.8
				c0,6.2,0,12.4,0,18.6c0,12.6,11,24.6,24,24S953,953.9,953,940.5L953,940.5z"/>
		</g>
	</g>
	<g>
		<g>
			<path fill="#000000" d="M905,1036.7c0,17.5,0,35.1,0,52.6c0,12.6,11,24.6,24,24s24-10.5,24-24c0-17.5,0-35.1,0-52.6c0-12.6-11-24.6-24-24
				C916,1013.3,905,1023.3,905,1036.7L905,1036.7z"/>
		</g>
	</g>
	<g>
		<g>
			<path fill="#000000" d="M795,1092.4c0,17.5,0,35.1,0,52.6c0,12.6,11,24.6,24,24s24-10.5,24-24c0-17.5,0-35.1,0-52.6c0-12.6-11-24.6-24-24
				S795,1079,795,1092.4L795,1092.4z"/>
		</g>
	</g>
	<g>
		<g>
			<path fill="#000000" d="M731.6,985.5c-1.1,3.5-3,6.8-5.7,9.4l-185.8,185.8c-9.4,9.5-24.3,8.8-33.9,0c-9.6-8.7-8.9-25,0-33.9
				c7.7-7.7,15.4-15.4,23.1-23.1c33.3-33.3,66.7-66.7,100-100L652,1001H504c-13.5,0-23.4-11-24-24c-0.2-4,0.8-7.7,2.6-11
				c1.2-3.4,3-6.6,5.6-9.2c7.7-7.7,15.4-15.4,23.1-23.1c33.3-33.3,66.7-66.7,100-100c20.9-20.9,41.8-41.8,62.7-62.7
				c9.5-9.5,24.4-8.8,33.9,0c9.6,8.7,8.9,25,0,33.9L584.8,928c-8.3,8.3-16.7,16.7-25,25H709c13.5,0,23.4,11,24,24
				C733.1,980,732.6,982.9,731.6,985.5z"/>
		</g>
	</g>
</g>
</svg>
